<svg xmlns="http://www.w3.org/2000/svg" width="61px" height="45px" aria-labelledby="nakedjsx-title"><title id="nakedjsx-title">NakedJSX</title><style>@media (prefers-color-scheme:dark){g{fill:#fff}}</style><g fill="#000" fill-rule="nonzero"><path d="M12.214 18.8v17.496c0 1.176-.072 2.184-.216 3.024-.144.84-.396 1.53-.756 2.07-.36.54-.853.936-1.478 1.188-.624.252-1.417.378-2.378.378-1.273 0-2.24-.246-2.9-.738-.66-.492-1.135-1.086-1.423-1.782a6.81 6.81 0 0 1-.505-2.196c-.048-.768-.084-1.428-.108-1.98H0c0 1.128.096 2.22.288 3.276.192 1.056.553 1.986 1.081 2.79.529.804 1.261 1.452 2.198 1.944s2.138.738 3.603.738c1.393 0 2.564-.156 3.513-.468.949-.312 1.718-.78 2.306-1.404.589-.624 1.015-1.416 1.28-2.376.263-.96.396-2.1.396-3.42V18.8h-2.45ZM21.006 36.044h-2.45c-.072 1.584.138 2.94.63 4.068.493 1.128 1.195 2.052 2.108 2.772.913.72 2.018 1.254 3.315 1.602 1.297.348 2.702.522 4.216.522 1.513 0 2.81-.138 3.89-.414 1.082-.276 1.989-.636 2.721-1.08.733-.444 1.31-.942 1.73-1.494a7.62 7.62 0 0 0 .973-1.638c.228-.54.372-1.05.432-1.53s.09-.864.09-1.152c0-1.056-.174-1.956-.522-2.7a5.47 5.47 0 0 0-1.442-1.89 8.528 8.528 0 0 0-2.126-1.296 18.035 18.035 0 0 0-2.576-.882l-6.27-1.548a9.457 9.457 0 0 1-1.494-.468 4.475 4.475 0 0 1-1.243-.756 3.31 3.31 0 0 1-.847-1.134c-.204-.444-.306-.966-.306-1.566 0-.96.18-1.764.54-2.412.36-.648.835-1.17 1.423-1.566.589-.396 1.273-.684 2.054-.864.78-.18 1.591-.27 2.432-.27a8.93 8.93 0 0 1 2.612.378 6.783 6.783 0 0 1 2.198 1.116 5.749 5.749 0 0 1 1.55 1.836c.396.732.618 1.59.666 2.574h2.45c0-1.32-.258-2.478-.774-3.474a7.495 7.495 0 0 0-2.072-2.502c-.865-.672-1.874-1.176-3.027-1.512a12.943 12.943 0 0 0-3.639-.504c-1.801 0-3.279.258-4.432.774-1.153.516-2.06 1.146-2.72 1.89-.66.744-1.111 1.536-1.351 2.376-.24.84-.36 1.572-.36 2.196 0 1.008.162 1.86.486 2.556.324.696.75 1.284 1.279 1.764.528.48 1.147.864 1.856 1.152.708.288 1.435.528 2.18.72l5.728 1.404c.6.144 1.213.33 1.838.558a7.436 7.436 0 0 1 1.711.882c.517.36.937.804 1.261 1.332.325.528.487 1.152.487 1.872 0 .936-.228 1.734-.685 2.394a5.652 5.652 0 0 1-1.711 1.62 7.656 7.656 0 0 1-2.216.918 9.382 9.382 0 0 1-2.198.288c-1.177 0-2.282-.114-3.315-.342-1.033-.228-1.927-.606-2.684-1.134-.757-.528-1.351-1.236-1.784-2.124-.432-.888-.636-1.992-.612-3.312ZM40.066 18.8l8.72 12.456-9.224 13.248H42.3l7.927-11.34 7.818 11.34H61l-9.296-13.176L60.496 18.8h-2.739l-7.53 10.764L42.949 18.8zM12.215 3.643v9.56h1.572v-5.4c0-.431.058-.829.175-1.192.118-.364.293-.682.527-.953a2.34 2.34 0 0 1 .879-.628c.351-.148.767-.222 1.248-.222.604 0 1.078.172 1.424.517.345.346.517.814.517 1.406v6.472h1.572V6.916c0-.518-.052-.99-.157-1.415a2.679 2.679 0 0 0-.546-1.1 2.584 2.584 0 0 0-1.017-.721c-.419-.173-.943-.26-1.571-.26-1.418 0-2.453.58-3.107 1.739h-.037V3.643h-1.479ZM30.965 13.166c-.271.16-.647.24-1.128.24-.407 0-.73-.114-.97-.342-.241-.228-.361-.601-.361-1.119a3.76 3.76 0 0 1-1.507 1.119 4.981 4.981 0 0 1-1.859.342c-.431 0-.841-.05-1.23-.148a2.86 2.86 0 0 1-1.007-.462 2.219 2.219 0 0 1-.675-.823c-.167-.34-.25-.749-.25-1.23 0-.542.093-.986.278-1.331a2.42 2.42 0 0 1 .73-.841c.302-.216.647-.38 1.036-.49.388-.111.785-.204 1.192-.278.432-.086.842-.15 1.23-.194a6.85 6.85 0 0 0 1.026-.185c.296-.08.53-.197.703-.351.172-.154.259-.38.259-.675 0-.345-.065-.623-.195-.832-.129-.21-.295-.37-.499-.481a2.03 2.03 0 0 0-.684-.222 5.167 5.167 0 0 0-.749-.055c-.666 0-1.22.126-1.664.379-.444.252-.684.73-.721 1.433h-1.572c.025-.592.148-1.091.37-1.498.222-.407.518-.737.887-.99.37-.252.792-.434 1.267-.545a6.69 6.69 0 0 1 1.526-.166c.431 0 .86.03 1.285.092.425.062.81.188 1.155.38.346.19.623.459.833.804.21.345.314.795.314 1.35v4.918c0 .37.021.641.065.814.043.172.188.259.434.259.136 0 .296-.031.48-.093v1.22Zm-2.552-4.9c-.197.147-.456.255-.777.323-.32.068-.656.123-1.007.166-.352.044-.706.093-1.063.148a3.91 3.91 0 0 0-.962.269 1.75 1.75 0 0 0-.693.527c-.18.228-.269.539-.269.933 0 .26.053.478.158.657.104.179.24.323.406.434.167.111.361.191.583.24.222.05.456.075.703.075.517 0 .961-.071 1.33-.213a2.8 2.8 0 0 0 .907-.536c.234-.216.407-.45.518-.703.11-.253.166-.49.166-.712V8.265ZM32.518 0v13.203h1.572V9.578l1.479-1.368 3.273 4.993h1.997l-4.068-6.084 3.791-3.476h-2.108L34.09 7.822V0zM48.66 7.507H43.17c.025-.37.105-.718.24-1.044.136-.327.32-.614.555-.86a2.54 2.54 0 0 1 .841-.583 2.737 2.737 0 0 1 1.1-.212 2.689 2.689 0 0 1 1.933.786c.24.24.431.527.573.86.142.332.225.684.25 1.053Zm1.517 2.663h-1.553c-.136.629-.416 1.097-.842 1.405-.425.309-.97.463-1.636.463-.518 0-.968-.087-1.35-.26a2.646 2.646 0 0 1-.943-.693 2.701 2.701 0 0 1-.536-.998 3.795 3.795 0 0 1-.148-1.193h7.156a7.611 7.611 0 0 0-.157-1.83 5.3 5.3 0 0 0-.703-1.776 4.187 4.187 0 0 0-1.35-1.34c-.56-.352-1.266-.527-2.117-.527-.653 0-1.254.123-1.803.37a4.237 4.237 0 0 0-1.424 1.035c-.4.444-.712.968-.933 1.572a5.753 5.753 0 0 0-.333 1.997c.024.727.132 1.4.323 2.015.191.617.478 1.147.86 1.59.382.444.854.79 1.415 1.036.56.247 1.223.37 1.988.37 1.084 0 1.984-.271 2.7-.814.714-.542 1.176-1.35 1.386-2.422ZM53.099 8.506c0-.469.049-.925.148-1.368a3.62 3.62 0 0 1 .48-1.184c.222-.345.518-.622.888-.832.37-.21.82-.314 1.35-.314.542 0 1.004.101 1.387.305.382.203.693.471.933.804.24.333.416.718.527 1.156.111.437.167.89.167 1.359 0 .444-.053.881-.157 1.313a3.44 3.44 0 0 1-.509 1.155 2.705 2.705 0 0 1-.906.823c-.37.21-.82.315-1.35.315-.505 0-.946-.099-1.322-.296a2.628 2.628 0 0 1-.924-.795 3.518 3.518 0 0 1-.537-1.138 4.888 4.888 0 0 1-.175-1.303Zm7.396 4.697V0h-1.572v4.919h-.037a2.532 2.532 0 0 0-.638-.712 3.624 3.624 0 0 0-.804-.463 4.037 4.037 0 0 0-.85-.25 4.656 4.656 0 0 0-.796-.073c-.727 0-1.365.132-1.914.397a3.929 3.929 0 0 0-1.368 1.073c-.364.45-.635.977-.813 1.58a6.744 6.744 0 0 0-.269 1.924c0 .678.093 1.319.278 1.923.185.604.459 1.134.823 1.59.363.456.82.82 1.368 1.091.549.271 1.193.407 1.932.407a4.66 4.66 0 0 0 1.83-.351 2.313 2.313 0 0 0 1.221-1.147h.037v1.295h1.572Z"/></g></svg>